<mxfile host="Electron" modified="2023-12-08T12:25:15.735Z" agent="Mozilla/5.0 (Macintosh; Intel Mac OS X 10_15_7) AppleWebKit/537.36 (KHTML, like Gecko) draw.io/22.1.2 Chrome/114.0.5735.289 Electron/25.9.4 Safari/537.36" etag="6wLibnGJJLnPD2hJiZju" version="22.1.2" type="device">
  <diagram name="第 1 页" id="iphkau7VtOT5DDRaiQJm">
    <mxGraphModel dx="4117" dy="1343" grid="1" gridSize="10" guides="1" tooltips="1" connect="1" arrows="1" fold="1" page="1" pageScale="1" pageWidth="827" pageHeight="1169" math="0" shadow="0">
      <root>
        <mxCell id="0" />
        <mxCell id="1" parent="0" />
        <mxCell id="W7-zjf-ntFIEKRT0tEcK-17" style="edgeStyle=orthogonalEdgeStyle;rounded=0;orthogonalLoop=1;jettySize=auto;html=1;exitX=0.5;exitY=1;exitDx=0;exitDy=0;exitPerimeter=0;entryX=0.5;entryY=0;entryDx=0;entryDy=0;" parent="1" source="W7-zjf-ntFIEKRT0tEcK-1" target="W7-zjf-ntFIEKRT0tEcK-4" edge="1">
          <mxGeometry relative="1" as="geometry" />
        </mxCell>
        <mxCell id="W7-zjf-ntFIEKRT0tEcK-1" value="主函数" style="strokeWidth=2;html=1;shape=mxgraph.flowchart.terminator;whiteSpace=wrap;" parent="1" vertex="1">
          <mxGeometry x="50" y="20" width="100" height="60" as="geometry" />
        </mxCell>
        <mxCell id="W7-zjf-ntFIEKRT0tEcK-18" style="edgeStyle=orthogonalEdgeStyle;rounded=0;orthogonalLoop=1;jettySize=auto;html=1;exitX=0.5;exitY=1;exitDx=0;exitDy=0;entryX=0.5;entryY=0;entryDx=0;entryDy=0;" parent="1" source="W7-zjf-ntFIEKRT0tEcK-4" target="W7-zjf-ntFIEKRT0tEcK-5" edge="1">
          <mxGeometry relative="1" as="geometry" />
        </mxCell>
        <mxCell id="W7-zjf-ntFIEKRT0tEcK-4" value="控制字、中断、LCD初始化" style="rounded=1;whiteSpace=wrap;html=1;" parent="1" vertex="1">
          <mxGeometry x="40" y="110" width="120" height="60" as="geometry" />
        </mxCell>
        <mxCell id="W7-zjf-ntFIEKRT0tEcK-19" style="edgeStyle=orthogonalEdgeStyle;rounded=0;orthogonalLoop=1;jettySize=auto;html=1;exitX=0.5;exitY=1;exitDx=0;exitDy=0;entryX=0.5;entryY=0;entryDx=0;entryDy=0;" parent="1" source="W7-zjf-ntFIEKRT0tEcK-5" target="W7-zjf-ntFIEKRT0tEcK-9" edge="1">
          <mxGeometry relative="1" as="geometry" />
        </mxCell>
        <mxCell id="W7-zjf-ntFIEKRT0tEcK-5" value="指定显示位置0x82" style="rounded=1;whiteSpace=wrap;html=1;" parent="1" vertex="1">
          <mxGeometry x="40" y="200" width="120" height="60" as="geometry" />
        </mxCell>
        <mxCell id="W7-zjf-ntFIEKRT0tEcK-21" style="edgeStyle=orthogonalEdgeStyle;rounded=0;orthogonalLoop=1;jettySize=auto;html=1;exitX=0.5;exitY=1;exitDx=0;exitDy=0;entryX=0.5;entryY=0;entryDx=0;entryDy=0;" parent="1" source="W7-zjf-ntFIEKRT0tEcK-6" target="W7-zjf-ntFIEKRT0tEcK-10" edge="1">
          <mxGeometry relative="1" as="geometry" />
        </mxCell>
        <mxCell id="W7-zjf-ntFIEKRT0tEcK-6" value="指定显示位置0x90" style="rounded=1;whiteSpace=wrap;html=1;" parent="1" vertex="1">
          <mxGeometry x="40" y="380" width="120" height="60" as="geometry" />
        </mxCell>
        <mxCell id="W7-zjf-ntFIEKRT0tEcK-7" value="指定显示位置0x8B" style="rounded=1;whiteSpace=wrap;html=1;" parent="1" vertex="1">
          <mxGeometry x="40" y="560" width="120" height="60" as="geometry" />
        </mxCell>
        <mxCell id="W7-zjf-ntFIEKRT0tEcK-28" style="edgeStyle=orthogonalEdgeStyle;rounded=0;orthogonalLoop=1;jettySize=auto;html=1;exitX=0.5;exitY=1;exitDx=0;exitDy=0;entryX=0.5;entryY=0;entryDx=0;entryDy=0;" parent="1" source="W7-zjf-ntFIEKRT0tEcK-8" target="W7-zjf-ntFIEKRT0tEcK-15" edge="1">
          <mxGeometry relative="1" as="geometry" />
        </mxCell>
        <mxCell id="W7-zjf-ntFIEKRT0tEcK-8" value="指定显示位置0x99" style="rounded=1;whiteSpace=wrap;html=1;" parent="1" vertex="1">
          <mxGeometry x="40" y="870" width="120" height="60" as="geometry" />
        </mxCell>
        <mxCell id="W7-zjf-ntFIEKRT0tEcK-20" style="edgeStyle=orthogonalEdgeStyle;rounded=0;orthogonalLoop=1;jettySize=auto;html=1;exitX=0.5;exitY=1;exitDx=0;exitDy=0;entryX=0.5;entryY=0;entryDx=0;entryDy=0;" parent="1" source="W7-zjf-ntFIEKRT0tEcK-9" target="W7-zjf-ntFIEKRT0tEcK-6" edge="1">
          <mxGeometry relative="1" as="geometry" />
        </mxCell>
        <mxCell id="W7-zjf-ntFIEKRT0tEcK-9" value="输出显示内容“吉林大学”" style="rounded=1;whiteSpace=wrap;html=1;" parent="1" vertex="1">
          <mxGeometry x="40" y="290" width="120" height="60" as="geometry" />
        </mxCell>
        <mxCell id="W7-zjf-ntFIEKRT0tEcK-22" style="edgeStyle=orthogonalEdgeStyle;rounded=0;orthogonalLoop=1;jettySize=auto;html=1;exitX=0.5;exitY=1;exitDx=0;exitDy=0;entryX=0.5;entryY=0;entryDx=0;entryDy=0;" parent="1" source="W7-zjf-ntFIEKRT0tEcK-10" target="W7-zjf-ntFIEKRT0tEcK-7" edge="1">
          <mxGeometry relative="1" as="geometry" />
        </mxCell>
        <mxCell id="W7-zjf-ntFIEKRT0tEcK-10" value="输出显示内容“Jilin University”" style="rounded=1;whiteSpace=wrap;html=1;" parent="1" vertex="1">
          <mxGeometry x="40" y="470" width="120" height="60" as="geometry" />
        </mxCell>
        <mxCell id="W7-zjf-ntFIEKRT0tEcK-63" style="edgeStyle=orthogonalEdgeStyle;rounded=0;orthogonalLoop=1;jettySize=auto;html=1;exitX=0.5;exitY=1;exitDx=0;exitDy=0;entryX=0;entryY=0.5;entryDx=0;entryDy=0;" parent="1" source="W7-zjf-ntFIEKRT0tEcK-11" target="W7-zjf-ntFIEKRT0tEcK-8" edge="1">
          <mxGeometry relative="1" as="geometry" />
        </mxCell>
        <mxCell id="W7-zjf-ntFIEKRT0tEcK-11" value="输出显示内容“正常”" style="rounded=1;whiteSpace=wrap;html=1;" parent="1" vertex="1">
          <mxGeometry x="-120" y="780" width="120" height="60" as="geometry" />
        </mxCell>
        <mxCell id="W7-zjf-ntFIEKRT0tEcK-24" style="edgeStyle=orthogonalEdgeStyle;rounded=0;orthogonalLoop=1;jettySize=auto;html=1;exitX=0;exitY=0.5;exitDx=0;exitDy=0;exitPerimeter=0;entryX=0.5;entryY=0;entryDx=0;entryDy=0;" parent="1" source="W7-zjf-ntFIEKRT0tEcK-12" target="W7-zjf-ntFIEKRT0tEcK-11" edge="1">
          <mxGeometry relative="1" as="geometry" />
        </mxCell>
        <mxCell id="W7-zjf-ntFIEKRT0tEcK-25" style="edgeStyle=orthogonalEdgeStyle;rounded=0;orthogonalLoop=1;jettySize=auto;html=1;exitX=0.5;exitY=1;exitDx=0;exitDy=0;exitPerimeter=0;entryX=0.5;entryY=0;entryDx=0;entryDy=0;" parent="1" source="W7-zjf-ntFIEKRT0tEcK-12" target="W7-zjf-ntFIEKRT0tEcK-13" edge="1">
          <mxGeometry relative="1" as="geometry" />
        </mxCell>
        <mxCell id="W7-zjf-ntFIEKRT0tEcK-26" style="edgeStyle=orthogonalEdgeStyle;rounded=0;orthogonalLoop=1;jettySize=auto;html=1;exitX=1;exitY=0.5;exitDx=0;exitDy=0;exitPerimeter=0;entryX=0.5;entryY=0;entryDx=0;entryDy=0;" parent="1" source="W7-zjf-ntFIEKRT0tEcK-12" target="W7-zjf-ntFIEKRT0tEcK-14" edge="1">
          <mxGeometry relative="1" as="geometry" />
        </mxCell>
        <mxCell id="W7-zjf-ntFIEKRT0tEcK-12" value="判断电压大小" style="strokeWidth=2;html=1;shape=mxgraph.flowchart.decision;whiteSpace=wrap;" parent="1" vertex="1">
          <mxGeometry x="50" y="650" width="100" height="100" as="geometry" />
        </mxCell>
        <mxCell id="W7-zjf-ntFIEKRT0tEcK-27" style="edgeStyle=orthogonalEdgeStyle;rounded=0;orthogonalLoop=1;jettySize=auto;html=1;exitX=0.5;exitY=1;exitDx=0;exitDy=0;entryX=0.5;entryY=0;entryDx=0;entryDy=0;" parent="1" source="W7-zjf-ntFIEKRT0tEcK-13" target="W7-zjf-ntFIEKRT0tEcK-8" edge="1">
          <mxGeometry relative="1" as="geometry" />
        </mxCell>
        <mxCell id="W7-zjf-ntFIEKRT0tEcK-13" value="输出显示内容“警告”" style="rounded=1;whiteSpace=wrap;html=1;" parent="1" vertex="1">
          <mxGeometry x="40" y="780" width="120" height="60" as="geometry" />
        </mxCell>
        <mxCell id="W7-zjf-ntFIEKRT0tEcK-62" style="edgeStyle=orthogonalEdgeStyle;rounded=0;orthogonalLoop=1;jettySize=auto;html=1;exitX=0.5;exitY=1;exitDx=0;exitDy=0;entryX=1;entryY=0.5;entryDx=0;entryDy=0;" parent="1" source="W7-zjf-ntFIEKRT0tEcK-14" target="W7-zjf-ntFIEKRT0tEcK-8" edge="1">
          <mxGeometry relative="1" as="geometry" />
        </mxCell>
        <mxCell id="W7-zjf-ntFIEKRT0tEcK-14" value="输出显示内容“危险”" style="rounded=1;whiteSpace=wrap;html=1;" parent="1" vertex="1">
          <mxGeometry x="200" y="780" width="120" height="60" as="geometry" />
        </mxCell>
        <mxCell id="W7-zjf-ntFIEKRT0tEcK-29" style="edgeStyle=orthogonalEdgeStyle;rounded=0;orthogonalLoop=1;jettySize=auto;html=1;exitX=0.5;exitY=1;exitDx=0;exitDy=0;entryX=0.5;entryY=0;entryDx=0;entryDy=0;" parent="1" source="W7-zjf-ntFIEKRT0tEcK-15" target="W7-zjf-ntFIEKRT0tEcK-16" edge="1">
          <mxGeometry relative="1" as="geometry" />
        </mxCell>
        <mxCell id="W7-zjf-ntFIEKRT0tEcK-15" value="输出显示内容“测量值”" style="rounded=1;whiteSpace=wrap;html=1;" parent="1" vertex="1">
          <mxGeometry x="40" y="960" width="120" height="60" as="geometry" />
        </mxCell>
        <mxCell id="W7-zjf-ntFIEKRT0tEcK-30" style="edgeStyle=orthogonalEdgeStyle;rounded=0;orthogonalLoop=1;jettySize=auto;html=1;exitX=0.5;exitY=1;exitDx=0;exitDy=0;entryX=1;entryY=0.5;entryDx=0;entryDy=0;" parent="1" source="W7-zjf-ntFIEKRT0tEcK-16" target="W7-zjf-ntFIEKRT0tEcK-5" edge="1">
          <mxGeometry relative="1" as="geometry">
            <Array as="points">
              <mxPoint x="100" y="1140" />
              <mxPoint x="350" y="1140" />
              <mxPoint x="350" y="230" />
            </Array>
          </mxGeometry>
        </mxCell>
        <mxCell id="W7-zjf-ntFIEKRT0tEcK-16" value="调用述职转换ASCII函数，将电压转换为ASCII码并输出显示" style="rounded=1;whiteSpace=wrap;html=1;" parent="1" vertex="1">
          <mxGeometry x="40" y="1050" width="120" height="60" as="geometry" />
        </mxCell>
        <mxCell id="W7-zjf-ntFIEKRT0tEcK-23" style="edgeStyle=orthogonalEdgeStyle;rounded=0;orthogonalLoop=1;jettySize=auto;html=1;exitX=0.5;exitY=1;exitDx=0;exitDy=0;entryX=0.5;entryY=0;entryDx=0;entryDy=0;entryPerimeter=0;" parent="1" source="W7-zjf-ntFIEKRT0tEcK-7" target="W7-zjf-ntFIEKRT0tEcK-12" edge="1">
          <mxGeometry relative="1" as="geometry" />
        </mxCell>
        <mxCell id="W7-zjf-ntFIEKRT0tEcK-32" value="输出显示函数" style="strokeWidth=2;html=1;shape=mxgraph.flowchart.terminator;whiteSpace=wrap;" parent="1" vertex="1">
          <mxGeometry x="440" y="20" width="100" height="60" as="geometry" />
        </mxCell>
        <mxCell id="W7-zjf-ntFIEKRT0tEcK-39" style="edgeStyle=orthogonalEdgeStyle;rounded=0;orthogonalLoop=1;jettySize=auto;html=1;exitX=0.5;exitY=1;exitDx=0;exitDy=0;exitPerimeter=0;entryX=0.5;entryY=0;entryDx=0;entryDy=0;" parent="1" source="W7-zjf-ntFIEKRT0tEcK-33" target="W7-zjf-ntFIEKRT0tEcK-34" edge="1">
          <mxGeometry relative="1" as="geometry" />
        </mxCell>
        <mxCell id="W7-zjf-ntFIEKRT0tEcK-40" value="否" style="edgeLabel;html=1;align=center;verticalAlign=middle;resizable=0;points=[];" parent="W7-zjf-ntFIEKRT0tEcK-39" vertex="1" connectable="0">
          <mxGeometry x="-0.103" y="2" relative="1" as="geometry">
            <mxPoint as="offset" />
          </mxGeometry>
        </mxCell>
        <mxCell id="W7-zjf-ntFIEKRT0tEcK-33" value="字符串是否遍历完" style="strokeWidth=2;html=1;shape=mxgraph.flowchart.decision;whiteSpace=wrap;" parent="1" vertex="1">
          <mxGeometry x="440" y="110" width="100" height="100" as="geometry" />
        </mxCell>
        <mxCell id="W7-zjf-ntFIEKRT0tEcK-43" style="edgeStyle=orthogonalEdgeStyle;rounded=0;orthogonalLoop=1;jettySize=auto;html=1;exitX=0.5;exitY=1;exitDx=0;exitDy=0;entryX=0.5;entryY=0;entryDx=0;entryDy=0;" parent="1" source="W7-zjf-ntFIEKRT0tEcK-34" target="W7-zjf-ntFIEKRT0tEcK-35" edge="1">
          <mxGeometry relative="1" as="geometry" />
        </mxCell>
        <mxCell id="W7-zjf-ntFIEKRT0tEcK-34" value="RS=1,RW=0" style="rounded=1;whiteSpace=wrap;html=1;" parent="1" vertex="1">
          <mxGeometry x="430" y="240" width="120" height="60" as="geometry" />
        </mxCell>
        <mxCell id="W7-zjf-ntFIEKRT0tEcK-44" style="edgeStyle=orthogonalEdgeStyle;rounded=0;orthogonalLoop=1;jettySize=auto;html=1;exitX=0.5;exitY=1;exitDx=0;exitDy=0;entryX=0.5;entryY=0;entryDx=0;entryDy=0;" parent="1" source="W7-zjf-ntFIEKRT0tEcK-35" target="W7-zjf-ntFIEKRT0tEcK-36" edge="1">
          <mxGeometry relative="1" as="geometry" />
        </mxCell>
        <mxCell id="W7-zjf-ntFIEKRT0tEcK-35" value="调用写字函数，写入当前字" style="rounded=1;whiteSpace=wrap;html=1;" parent="1" vertex="1">
          <mxGeometry x="430" y="330" width="120" height="60" as="geometry" />
        </mxCell>
        <mxCell id="W7-zjf-ntFIEKRT0tEcK-36" value="延时" style="rounded=1;whiteSpace=wrap;html=1;" parent="1" vertex="1">
          <mxGeometry x="430" y="420" width="120" height="60" as="geometry" />
        </mxCell>
        <mxCell id="W7-zjf-ntFIEKRT0tEcK-37" value="返回" style="strokeWidth=2;html=1;shape=mxgraph.flowchart.terminator;whiteSpace=wrap;" parent="1" vertex="1">
          <mxGeometry x="440" y="510" width="100" height="60" as="geometry" />
        </mxCell>
        <mxCell id="W7-zjf-ntFIEKRT0tEcK-38" style="edgeStyle=orthogonalEdgeStyle;rounded=0;orthogonalLoop=1;jettySize=auto;html=1;exitX=0.5;exitY=1;exitDx=0;exitDy=0;exitPerimeter=0;entryX=0.5;entryY=0;entryDx=0;entryDy=0;entryPerimeter=0;" parent="1" source="W7-zjf-ntFIEKRT0tEcK-32" target="W7-zjf-ntFIEKRT0tEcK-33" edge="1">
          <mxGeometry relative="1" as="geometry" />
        </mxCell>
        <mxCell id="W7-zjf-ntFIEKRT0tEcK-41" style="edgeStyle=orthogonalEdgeStyle;rounded=0;orthogonalLoop=1;jettySize=auto;html=1;exitX=1;exitY=0.5;exitDx=0;exitDy=0;exitPerimeter=0;entryX=1;entryY=0.5;entryDx=0;entryDy=0;entryPerimeter=0;" parent="1" source="W7-zjf-ntFIEKRT0tEcK-33" target="W7-zjf-ntFIEKRT0tEcK-37" edge="1">
          <mxGeometry relative="1" as="geometry">
            <Array as="points">
              <mxPoint x="600" y="160" />
              <mxPoint x="600" y="540" />
            </Array>
          </mxGeometry>
        </mxCell>
        <mxCell id="W7-zjf-ntFIEKRT0tEcK-42" value="是" style="edgeLabel;html=1;align=center;verticalAlign=middle;resizable=0;points=[];" parent="W7-zjf-ntFIEKRT0tEcK-41" vertex="1" connectable="0">
          <mxGeometry x="-0.0698" y="4" relative="1" as="geometry">
            <mxPoint as="offset" />
          </mxGeometry>
        </mxCell>
        <mxCell id="W7-zjf-ntFIEKRT0tEcK-48" style="edgeStyle=orthogonalEdgeStyle;rounded=0;orthogonalLoop=1;jettySize=auto;html=1;exitX=0;exitY=0.5;exitDx=0;exitDy=0;entryX=0;entryY=0.5;entryDx=0;entryDy=0;entryPerimeter=0;" parent="1" source="W7-zjf-ntFIEKRT0tEcK-36" target="W7-zjf-ntFIEKRT0tEcK-33" edge="1">
          <mxGeometry relative="1" as="geometry">
            <Array as="points">
              <mxPoint x="380" y="450" />
              <mxPoint x="380" y="160" />
            </Array>
          </mxGeometry>
        </mxCell>
        <mxCell id="W7-zjf-ntFIEKRT0tEcK-56" style="edgeStyle=orthogonalEdgeStyle;rounded=0;orthogonalLoop=1;jettySize=auto;html=1;exitX=0.5;exitY=1;exitDx=0;exitDy=0;exitPerimeter=0;entryX=0.5;entryY=0;entryDx=0;entryDy=0;" parent="1" source="W7-zjf-ntFIEKRT0tEcK-49" target="W7-zjf-ntFIEKRT0tEcK-50" edge="1">
          <mxGeometry relative="1" as="geometry" />
        </mxCell>
        <mxCell id="W7-zjf-ntFIEKRT0tEcK-49" value="写字函数" style="strokeWidth=2;html=1;shape=mxgraph.flowchart.terminator;whiteSpace=wrap;" parent="1" vertex="1">
          <mxGeometry x="670" y="20" width="100" height="60" as="geometry" />
        </mxCell>
        <mxCell id="W7-zjf-ntFIEKRT0tEcK-59" style="edgeStyle=orthogonalEdgeStyle;rounded=0;orthogonalLoop=1;jettySize=auto;html=1;exitX=0.5;exitY=1;exitDx=0;exitDy=0;entryX=0.5;entryY=0;entryDx=0;entryDy=0;" parent="1" source="W7-zjf-ntFIEKRT0tEcK-50" target="W7-zjf-ntFIEKRT0tEcK-51" edge="1">
          <mxGeometry relative="1" as="geometry" />
        </mxCell>
        <mxCell id="W7-zjf-ntFIEKRT0tEcK-50" value="CS=1，写入字节0xFA，表示写入的是显示内容" style="rounded=1;whiteSpace=wrap;html=1;" parent="1" vertex="1">
          <mxGeometry x="660" y="110" width="120" height="60" as="geometry" />
        </mxCell>
        <mxCell id="W7-zjf-ntFIEKRT0tEcK-57" style="edgeStyle=orthogonalEdgeStyle;rounded=0;orthogonalLoop=1;jettySize=auto;html=1;exitX=0.5;exitY=1;exitDx=0;exitDy=0;entryX=0.5;entryY=0;entryDx=0;entryDy=0;" parent="1" source="W7-zjf-ntFIEKRT0tEcK-51" target="W7-zjf-ntFIEKRT0tEcK-52" edge="1">
          <mxGeometry relative="1" as="geometry" />
        </mxCell>
        <mxCell id="W7-zjf-ntFIEKRT0tEcK-51" value="将所显示字节拆分为高位和低位，分别写入x和y的高位" style="rounded=1;whiteSpace=wrap;html=1;" parent="1" vertex="1">
          <mxGeometry x="660" y="200" width="120" height="60" as="geometry" />
        </mxCell>
        <mxCell id="W7-zjf-ntFIEKRT0tEcK-52" value="写入字节x和y，CS=0" style="rounded=1;whiteSpace=wrap;html=1;" parent="1" vertex="1">
          <mxGeometry x="660" y="290" width="120" height="60" as="geometry" />
        </mxCell>
        <mxCell id="W7-zjf-ntFIEKRT0tEcK-55" value="返回" style="strokeWidth=2;html=1;shape=mxgraph.flowchart.terminator;whiteSpace=wrap;" parent="1" vertex="1">
          <mxGeometry x="670" y="380" width="100" height="60" as="geometry" />
        </mxCell>
        <mxCell id="W7-zjf-ntFIEKRT0tEcK-58" style="edgeStyle=orthogonalEdgeStyle;rounded=0;orthogonalLoop=1;jettySize=auto;html=1;exitX=0.5;exitY=1;exitDx=0;exitDy=0;entryX=0.5;entryY=0;entryDx=0;entryDy=0;entryPerimeter=0;" parent="1" source="W7-zjf-ntFIEKRT0tEcK-52" target="W7-zjf-ntFIEKRT0tEcK-55" edge="1">
          <mxGeometry relative="1" as="geometry" />
        </mxCell>
        <mxCell id="W7-zjf-ntFIEKRT0tEcK-67" style="edgeStyle=orthogonalEdgeStyle;rounded=0;orthogonalLoop=1;jettySize=auto;html=1;exitX=0.5;exitY=1;exitDx=0;exitDy=0;exitPerimeter=0;entryX=0.5;entryY=0;entryDx=0;entryDy=0;" parent="1" source="W7-zjf-ntFIEKRT0tEcK-60" target="W7-zjf-ntFIEKRT0tEcK-61" edge="1">
          <mxGeometry relative="1" as="geometry" />
        </mxCell>
        <mxCell id="W7-zjf-ntFIEKRT0tEcK-60" value="写入字节函数" style="strokeWidth=2;html=1;shape=mxgraph.flowchart.terminator;whiteSpace=wrap;" parent="1" vertex="1">
          <mxGeometry x="440" y="610" width="100" height="60" as="geometry" />
        </mxCell>
        <mxCell id="W7-zjf-ntFIEKRT0tEcK-68" style="edgeStyle=orthogonalEdgeStyle;rounded=0;orthogonalLoop=1;jettySize=auto;html=1;exitX=0.5;exitY=1;exitDx=0;exitDy=0;entryX=0.5;entryY=0;entryDx=0;entryDy=0;" parent="1" source="W7-zjf-ntFIEKRT0tEcK-61" target="W7-zjf-ntFIEKRT0tEcK-64" edge="1">
          <mxGeometry relative="1" as="geometry" />
        </mxCell>
        <mxCell id="W7-zjf-ntFIEKRT0tEcK-61" value="当前写入位i是否小于8" style="rhombus;whiteSpace=wrap;html=1;" parent="1" vertex="1">
          <mxGeometry x="450" y="700" width="80" height="80" as="geometry" />
        </mxCell>
        <mxCell id="W7-zjf-ntFIEKRT0tEcK-70" style="edgeStyle=orthogonalEdgeStyle;rounded=0;orthogonalLoop=1;jettySize=auto;html=1;exitX=0.5;exitY=1;exitDx=0;exitDy=0;entryX=0.5;entryY=0;entryDx=0;entryDy=0;" parent="1" source="W7-zjf-ntFIEKRT0tEcK-64" target="W7-zjf-ntFIEKRT0tEcK-65" edge="1">
          <mxGeometry relative="1" as="geometry" />
        </mxCell>
        <mxCell id="W7-zjf-ntFIEKRT0tEcK-64" value="x赋值写入字节的第i位" style="rounded=1;whiteSpace=wrap;html=1;" parent="1" vertex="1">
          <mxGeometry x="430" y="810" width="120" height="60" as="geometry" />
        </mxCell>
        <mxCell id="W7-zjf-ntFIEKRT0tEcK-71" style="edgeStyle=orthogonalEdgeStyle;rounded=0;orthogonalLoop=1;jettySize=auto;html=1;exitX=0;exitY=0.5;exitDx=0;exitDy=0;entryX=0;entryY=0.5;entryDx=0;entryDy=0;" parent="1" source="W7-zjf-ntFIEKRT0tEcK-65" target="W7-zjf-ntFIEKRT0tEcK-61" edge="1">
          <mxGeometry relative="1" as="geometry">
            <Array as="points">
              <mxPoint x="400" y="930" />
              <mxPoint x="400" y="740" />
            </Array>
          </mxGeometry>
        </mxCell>
        <mxCell id="W7-zjf-ntFIEKRT0tEcK-65" value="调用写入位函数，写入位x" style="rounded=1;whiteSpace=wrap;html=1;" parent="1" vertex="1">
          <mxGeometry x="430" y="900" width="120" height="60" as="geometry" />
        </mxCell>
        <mxCell id="W7-zjf-ntFIEKRT0tEcK-66" value="返回" style="strokeWidth=2;html=1;shape=mxgraph.flowchart.terminator;whiteSpace=wrap;" parent="1" vertex="1">
          <mxGeometry x="440" y="990" width="100" height="60" as="geometry" />
        </mxCell>
        <mxCell id="W7-zjf-ntFIEKRT0tEcK-69" style="edgeStyle=orthogonalEdgeStyle;rounded=0;orthogonalLoop=1;jettySize=auto;html=1;exitX=1;exitY=0.5;exitDx=0;exitDy=0;entryX=1;entryY=0.5;entryDx=0;entryDy=0;entryPerimeter=0;" parent="1" source="W7-zjf-ntFIEKRT0tEcK-61" target="W7-zjf-ntFIEKRT0tEcK-66" edge="1">
          <mxGeometry relative="1" as="geometry">
            <Array as="points">
              <mxPoint x="590" y="740" />
              <mxPoint x="590" y="1020" />
            </Array>
          </mxGeometry>
        </mxCell>
        <mxCell id="W7-zjf-ntFIEKRT0tEcK-77" style="edgeStyle=orthogonalEdgeStyle;rounded=0;orthogonalLoop=1;jettySize=auto;html=1;exitX=0.5;exitY=1;exitDx=0;exitDy=0;exitPerimeter=0;entryX=0.5;entryY=0;entryDx=0;entryDy=0;" parent="1" source="W7-zjf-ntFIEKRT0tEcK-72" target="W7-zjf-ntFIEKRT0tEcK-73" edge="1">
          <mxGeometry relative="1" as="geometry" />
        </mxCell>
        <mxCell id="W7-zjf-ntFIEKRT0tEcK-72" value="写入位函数" style="strokeWidth=2;html=1;shape=mxgraph.flowchart.terminator;whiteSpace=wrap;" parent="1" vertex="1">
          <mxGeometry x="670" y="610" width="100" height="60" as="geometry" />
        </mxCell>
        <mxCell id="W7-zjf-ntFIEKRT0tEcK-78" style="edgeStyle=orthogonalEdgeStyle;rounded=0;orthogonalLoop=1;jettySize=auto;html=1;exitX=0.5;exitY=1;exitDx=0;exitDy=0;entryX=0.5;entryY=0;entryDx=0;entryDy=0;" parent="1" source="W7-zjf-ntFIEKRT0tEcK-73" target="W7-zjf-ntFIEKRT0tEcK-74" edge="1">
          <mxGeometry relative="1" as="geometry" />
        </mxCell>
        <mxCell id="W7-zjf-ntFIEKRT0tEcK-73" value="SCLK=1" style="rounded=1;whiteSpace=wrap;html=1;" parent="1" vertex="1">
          <mxGeometry x="660" y="700" width="120" height="60" as="geometry" />
        </mxCell>
        <mxCell id="W7-zjf-ntFIEKRT0tEcK-79" style="edgeStyle=orthogonalEdgeStyle;rounded=0;orthogonalLoop=1;jettySize=auto;html=1;exitX=0.5;exitY=1;exitDx=0;exitDy=0;entryX=0.5;entryY=0;entryDx=0;entryDy=0;" parent="1" source="W7-zjf-ntFIEKRT0tEcK-74" target="W7-zjf-ntFIEKRT0tEcK-75" edge="1">
          <mxGeometry relative="1" as="geometry" />
        </mxCell>
        <mxCell id="W7-zjf-ntFIEKRT0tEcK-74" value="将SID赋值需要显示的那一位" style="rounded=1;whiteSpace=wrap;html=1;" parent="1" vertex="1">
          <mxGeometry x="660" y="790" width="120" height="60" as="geometry" />
        </mxCell>
        <mxCell id="W7-zjf-ntFIEKRT0tEcK-75" value="SCLK=0" style="rounded=1;whiteSpace=wrap;html=1;" parent="1" vertex="1">
          <mxGeometry x="660" y="880" width="120" height="60" as="geometry" />
        </mxCell>
        <mxCell id="W7-zjf-ntFIEKRT0tEcK-76" value="返回" style="strokeWidth=2;html=1;shape=mxgraph.flowchart.terminator;whiteSpace=wrap;" parent="1" vertex="1">
          <mxGeometry x="670" y="970" width="100" height="60" as="geometry" />
        </mxCell>
        <mxCell id="W7-zjf-ntFIEKRT0tEcK-80" style="edgeStyle=orthogonalEdgeStyle;rounded=0;orthogonalLoop=1;jettySize=auto;html=1;exitX=0.5;exitY=1;exitDx=0;exitDy=0;entryX=0.5;entryY=0;entryDx=0;entryDy=0;entryPerimeter=0;" parent="1" source="W7-zjf-ntFIEKRT0tEcK-75" target="W7-zjf-ntFIEKRT0tEcK-76" edge="1">
          <mxGeometry relative="1" as="geometry" />
        </mxCell>
        <mxCell id="W7-zjf-ntFIEKRT0tEcK-81" style="edgeStyle=orthogonalEdgeStyle;rounded=0;orthogonalLoop=1;jettySize=auto;html=1;exitX=0.5;exitY=1;exitDx=0;exitDy=0;exitPerimeter=0;entryX=0.5;entryY=0;entryDx=0;entryDy=0;" parent="1" source="W7-zjf-ntFIEKRT0tEcK-82" target="W7-zjf-ntFIEKRT0tEcK-84" edge="1">
          <mxGeometry relative="1" as="geometry" />
        </mxCell>
        <mxCell id="W7-zjf-ntFIEKRT0tEcK-82" value="LCD写控制字函数" style="strokeWidth=2;html=1;shape=mxgraph.flowchart.terminator;whiteSpace=wrap;" parent="1" vertex="1">
          <mxGeometry x="-170" y="20" width="100" height="60" as="geometry" />
        </mxCell>
        <mxCell id="W7-zjf-ntFIEKRT0tEcK-83" style="edgeStyle=orthogonalEdgeStyle;rounded=0;orthogonalLoop=1;jettySize=auto;html=1;exitX=0.5;exitY=1;exitDx=0;exitDy=0;entryX=0.5;entryY=0;entryDx=0;entryDy=0;" parent="1" source="W7-zjf-ntFIEKRT0tEcK-84" target="W7-zjf-ntFIEKRT0tEcK-86" edge="1">
          <mxGeometry relative="1" as="geometry" />
        </mxCell>
        <mxCell id="W7-zjf-ntFIEKRT0tEcK-84" value="CS=1，写入字节0xF8，表示写入的是控制字" style="rounded=1;whiteSpace=wrap;html=1;" parent="1" vertex="1">
          <mxGeometry x="-180" y="110" width="120" height="60" as="geometry" />
        </mxCell>
        <mxCell id="W7-zjf-ntFIEKRT0tEcK-85" style="edgeStyle=orthogonalEdgeStyle;rounded=0;orthogonalLoop=1;jettySize=auto;html=1;exitX=0.5;exitY=1;exitDx=0;exitDy=0;entryX=0.5;entryY=0;entryDx=0;entryDy=0;" parent="1" source="W7-zjf-ntFIEKRT0tEcK-86" target="W7-zjf-ntFIEKRT0tEcK-87" edge="1">
          <mxGeometry relative="1" as="geometry" />
        </mxCell>
        <mxCell id="W7-zjf-ntFIEKRT0tEcK-86" value="将所显示字节拆分为高位和低位，分别写入x和y的高位" style="rounded=1;whiteSpace=wrap;html=1;" parent="1" vertex="1">
          <mxGeometry x="-180" y="200" width="120" height="60" as="geometry" />
        </mxCell>
        <mxCell id="W7-zjf-ntFIEKRT0tEcK-87" value="写入字节x和y，CS=0" style="rounded=1;whiteSpace=wrap;html=1;" parent="1" vertex="1">
          <mxGeometry x="-180" y="290" width="120" height="60" as="geometry" />
        </mxCell>
        <mxCell id="W7-zjf-ntFIEKRT0tEcK-88" value="返回" style="strokeWidth=2;html=1;shape=mxgraph.flowchart.terminator;whiteSpace=wrap;" parent="1" vertex="1">
          <mxGeometry x="-170" y="380" width="100" height="60" as="geometry" />
        </mxCell>
        <mxCell id="W7-zjf-ntFIEKRT0tEcK-89" style="edgeStyle=orthogonalEdgeStyle;rounded=0;orthogonalLoop=1;jettySize=auto;html=1;exitX=0.5;exitY=1;exitDx=0;exitDy=0;entryX=0.5;entryY=0;entryDx=0;entryDy=0;entryPerimeter=0;" parent="1" source="W7-zjf-ntFIEKRT0tEcK-87" target="W7-zjf-ntFIEKRT0tEcK-88" edge="1">
          <mxGeometry relative="1" as="geometry" />
        </mxCell>
        <mxCell id="W7-zjf-ntFIEKRT0tEcK-107" style="edgeStyle=orthogonalEdgeStyle;rounded=0;orthogonalLoop=1;jettySize=auto;html=1;exitX=0.5;exitY=1;exitDx=0;exitDy=0;exitPerimeter=0;entryX=0.5;entryY=0;entryDx=0;entryDy=0;" parent="1" source="W7-zjf-ntFIEKRT0tEcK-90" target="W7-zjf-ntFIEKRT0tEcK-91" edge="1">
          <mxGeometry relative="1" as="geometry" />
        </mxCell>
        <mxCell id="W7-zjf-ntFIEKRT0tEcK-90" value="LCD初始化函数" style="strokeWidth=2;html=1;shape=mxgraph.flowchart.terminator;whiteSpace=wrap;" parent="1" vertex="1">
          <mxGeometry x="-380" y="20" width="100" height="60" as="geometry" />
        </mxCell>
        <mxCell id="W7-zjf-ntFIEKRT0tEcK-108" style="edgeStyle=orthogonalEdgeStyle;rounded=0;orthogonalLoop=1;jettySize=auto;html=1;exitX=0.5;exitY=1;exitDx=0;exitDy=0;entryX=0.5;entryY=0;entryDx=0;entryDy=0;" parent="1" source="W7-zjf-ntFIEKRT0tEcK-91" target="W7-zjf-ntFIEKRT0tEcK-92" edge="1">
          <mxGeometry relative="1" as="geometry" />
        </mxCell>
        <mxCell id="W7-zjf-ntFIEKRT0tEcK-91" value="延时40ms" style="rounded=1;whiteSpace=wrap;html=1;" parent="1" vertex="1">
          <mxGeometry x="-390" y="110" width="120" height="60" as="geometry" />
        </mxCell>
        <mxCell id="W7-zjf-ntFIEKRT0tEcK-109" style="edgeStyle=orthogonalEdgeStyle;rounded=0;orthogonalLoop=1;jettySize=auto;html=1;exitX=0.5;exitY=1;exitDx=0;exitDy=0;entryX=0.5;entryY=0;entryDx=0;entryDy=0;" parent="1" source="W7-zjf-ntFIEKRT0tEcK-92" target="W7-zjf-ntFIEKRT0tEcK-93" edge="1">
          <mxGeometry relative="1" as="geometry" />
        </mxCell>
        <mxCell id="W7-zjf-ntFIEKRT0tEcK-92" value="RST=0" style="rounded=1;whiteSpace=wrap;html=1;" parent="1" vertex="1">
          <mxGeometry x="-390" y="200" width="120" height="60" as="geometry" />
        </mxCell>
        <mxCell id="W7-zjf-ntFIEKRT0tEcK-110" style="edgeStyle=orthogonalEdgeStyle;rounded=0;orthogonalLoop=1;jettySize=auto;html=1;exitX=0.5;exitY=1;exitDx=0;exitDy=0;entryX=0.5;entryY=0;entryDx=0;entryDy=0;" parent="1" source="W7-zjf-ntFIEKRT0tEcK-93" target="W7-zjf-ntFIEKRT0tEcK-94" edge="1">
          <mxGeometry relative="1" as="geometry" />
        </mxCell>
        <mxCell id="W7-zjf-ntFIEKRT0tEcK-93" value="延时5ms" style="rounded=1;whiteSpace=wrap;html=1;" parent="1" vertex="1">
          <mxGeometry x="-390" y="290" width="120" height="60" as="geometry" />
        </mxCell>
        <mxCell id="W7-zjf-ntFIEKRT0tEcK-111" style="edgeStyle=orthogonalEdgeStyle;rounded=0;orthogonalLoop=1;jettySize=auto;html=1;exitX=0.5;exitY=1;exitDx=0;exitDy=0;entryX=0.5;entryY=0;entryDx=0;entryDy=0;" parent="1" source="W7-zjf-ntFIEKRT0tEcK-94" target="W7-zjf-ntFIEKRT0tEcK-95" edge="1">
          <mxGeometry relative="1" as="geometry" />
        </mxCell>
        <mxCell id="W7-zjf-ntFIEKRT0tEcK-94" value="RST=1" style="rounded=1;whiteSpace=wrap;html=1;" parent="1" vertex="1">
          <mxGeometry x="-390" y="380" width="120" height="60" as="geometry" />
        </mxCell>
        <mxCell id="W7-zjf-ntFIEKRT0tEcK-112" style="edgeStyle=orthogonalEdgeStyle;rounded=0;orthogonalLoop=1;jettySize=auto;html=1;exitX=0.5;exitY=1;exitDx=0;exitDy=0;entryX=0.5;entryY=0;entryDx=0;entryDy=0;" parent="1" source="W7-zjf-ntFIEKRT0tEcK-95" target="W7-zjf-ntFIEKRT0tEcK-96" edge="1">
          <mxGeometry relative="1" as="geometry" />
        </mxCell>
        <mxCell id="W7-zjf-ntFIEKRT0tEcK-95" value="写控制字0x01" style="rounded=1;whiteSpace=wrap;html=1;" parent="1" vertex="1">
          <mxGeometry x="-390" y="470" width="120" height="60" as="geometry" />
        </mxCell>
        <mxCell id="W7-zjf-ntFIEKRT0tEcK-113" style="edgeStyle=orthogonalEdgeStyle;rounded=0;orthogonalLoop=1;jettySize=auto;html=1;exitX=0.5;exitY=1;exitDx=0;exitDy=0;entryX=0.5;entryY=0;entryDx=0;entryDy=0;" parent="1" source="W7-zjf-ntFIEKRT0tEcK-96" target="W7-zjf-ntFIEKRT0tEcK-98" edge="1">
          <mxGeometry relative="1" as="geometry" />
        </mxCell>
        <mxCell id="W7-zjf-ntFIEKRT0tEcK-96" value="延时5ms" style="rounded=1;whiteSpace=wrap;html=1;" parent="1" vertex="1">
          <mxGeometry x="-390" y="560" width="120" height="60" as="geometry" />
        </mxCell>
        <mxCell id="W7-zjf-ntFIEKRT0tEcK-114" style="edgeStyle=orthogonalEdgeStyle;rounded=0;orthogonalLoop=1;jettySize=auto;html=1;exitX=0.5;exitY=1;exitDx=0;exitDy=0;entryX=0.5;entryY=0;entryDx=0;entryDy=0;" parent="1" source="W7-zjf-ntFIEKRT0tEcK-98" target="W7-zjf-ntFIEKRT0tEcK-100" edge="1">
          <mxGeometry relative="1" as="geometry" />
        </mxCell>
        <mxCell id="W7-zjf-ntFIEKRT0tEcK-98" value="写控制字0x30" style="rounded=1;whiteSpace=wrap;html=1;" parent="1" vertex="1">
          <mxGeometry x="-390" y="650" width="120" height="60" as="geometry" />
        </mxCell>
        <mxCell id="W7-zjf-ntFIEKRT0tEcK-115" style="edgeStyle=orthogonalEdgeStyle;rounded=0;orthogonalLoop=1;jettySize=auto;html=1;exitX=0.5;exitY=1;exitDx=0;exitDy=0;entryX=0.5;entryY=0;entryDx=0;entryDy=0;" parent="1" source="W7-zjf-ntFIEKRT0tEcK-100" target="W7-zjf-ntFIEKRT0tEcK-101" edge="1">
          <mxGeometry relative="1" as="geometry" />
        </mxCell>
        <mxCell id="W7-zjf-ntFIEKRT0tEcK-100" value="延时5ms" style="rounded=1;whiteSpace=wrap;html=1;" parent="1" vertex="1">
          <mxGeometry x="-390" y="735" width="120" height="60" as="geometry" />
        </mxCell>
        <mxCell id="W7-zjf-ntFIEKRT0tEcK-116" style="edgeStyle=orthogonalEdgeStyle;rounded=0;orthogonalLoop=1;jettySize=auto;html=1;exitX=0.5;exitY=1;exitDx=0;exitDy=0;entryX=0.5;entryY=0;entryDx=0;entryDy=0;" parent="1" source="W7-zjf-ntFIEKRT0tEcK-101" target="W7-zjf-ntFIEKRT0tEcK-102" edge="1">
          <mxGeometry relative="1" as="geometry" />
        </mxCell>
        <mxCell id="W7-zjf-ntFIEKRT0tEcK-101" value="写控制字0x0C" style="rounded=1;whiteSpace=wrap;html=1;" parent="1" vertex="1">
          <mxGeometry x="-390" y="825" width="120" height="60" as="geometry" />
        </mxCell>
        <mxCell id="W7-zjf-ntFIEKRT0tEcK-117" style="edgeStyle=orthogonalEdgeStyle;rounded=0;orthogonalLoop=1;jettySize=auto;html=1;exitX=0.5;exitY=1;exitDx=0;exitDy=0;entryX=0.5;entryY=0;entryDx=0;entryDy=0;" parent="1" source="W7-zjf-ntFIEKRT0tEcK-102" target="W7-zjf-ntFIEKRT0tEcK-103" edge="1">
          <mxGeometry relative="1" as="geometry" />
        </mxCell>
        <mxCell id="W7-zjf-ntFIEKRT0tEcK-102" value="延时5ms" style="rounded=1;whiteSpace=wrap;html=1;" parent="1" vertex="1">
          <mxGeometry x="-390" y="915" width="120" height="60" as="geometry" />
        </mxCell>
        <mxCell id="W7-zjf-ntFIEKRT0tEcK-118" style="edgeStyle=orthogonalEdgeStyle;rounded=0;orthogonalLoop=1;jettySize=auto;html=1;exitX=0.5;exitY=1;exitDx=0;exitDy=0;entryX=0.5;entryY=0;entryDx=0;entryDy=0;" parent="1" source="W7-zjf-ntFIEKRT0tEcK-103" target="W7-zjf-ntFIEKRT0tEcK-104" edge="1">
          <mxGeometry relative="1" as="geometry" />
        </mxCell>
        <mxCell id="W7-zjf-ntFIEKRT0tEcK-103" value="写控制字0x06" style="rounded=1;whiteSpace=wrap;html=1;" parent="1" vertex="1">
          <mxGeometry x="-390" y="1005" width="120" height="60" as="geometry" />
        </mxCell>
        <mxCell id="W7-zjf-ntFIEKRT0tEcK-104" value="延时5ms" style="rounded=1;whiteSpace=wrap;html=1;" parent="1" vertex="1">
          <mxGeometry x="-390" y="1090" width="120" height="60" as="geometry" />
        </mxCell>
        <mxCell id="W7-zjf-ntFIEKRT0tEcK-106" value="返回" style="strokeWidth=2;html=1;shape=mxgraph.flowchart.terminator;whiteSpace=wrap;" parent="1" vertex="1">
          <mxGeometry x="-380" y="1180" width="100" height="60" as="geometry" />
        </mxCell>
        <mxCell id="W7-zjf-ntFIEKRT0tEcK-119" style="edgeStyle=orthogonalEdgeStyle;rounded=0;orthogonalLoop=1;jettySize=auto;html=1;exitX=0.5;exitY=1;exitDx=0;exitDy=0;entryX=0.5;entryY=0;entryDx=0;entryDy=0;entryPerimeter=0;" parent="1" source="W7-zjf-ntFIEKRT0tEcK-104" target="W7-zjf-ntFIEKRT0tEcK-106" edge="1">
          <mxGeometry relative="1" as="geometry" />
        </mxCell>
        <mxCell id="gpJfkQHuCm5lr9vp5pC6-15" style="edgeStyle=orthogonalEdgeStyle;rounded=0;orthogonalLoop=1;jettySize=auto;html=1;exitX=0.5;exitY=1;exitDx=0;exitDy=0;exitPerimeter=0;entryX=0.5;entryY=0;entryDx=0;entryDy=0;" edge="1" parent="1" source="gpJfkQHuCm5lr9vp5pC6-1" target="gpJfkQHuCm5lr9vp5pC6-2">
          <mxGeometry relative="1" as="geometry" />
        </mxCell>
        <mxCell id="gpJfkQHuCm5lr9vp5pC6-1" value="中断处理程序1" style="strokeWidth=2;html=1;shape=mxgraph.flowchart.terminator;whiteSpace=wrap;" vertex="1" parent="1">
          <mxGeometry x="-720" y="20" width="100" height="60" as="geometry" />
        </mxCell>
        <mxCell id="gpJfkQHuCm5lr9vp5pC6-16" style="edgeStyle=orthogonalEdgeStyle;rounded=0;orthogonalLoop=1;jettySize=auto;html=1;exitX=0.5;exitY=1;exitDx=0;exitDy=0;entryX=0.5;entryY=0;entryDx=0;entryDy=0;" edge="1" parent="1" source="gpJfkQHuCm5lr9vp5pC6-2" target="gpJfkQHuCm5lr9vp5pC6-3">
          <mxGeometry relative="1" as="geometry" />
        </mxCell>
        <mxCell id="gpJfkQHuCm5lr9vp5pC6-2" value="重置中断" style="rounded=1;whiteSpace=wrap;html=1;" vertex="1" parent="1">
          <mxGeometry x="-730" y="110" width="120" height="60" as="geometry" />
        </mxCell>
        <mxCell id="gpJfkQHuCm5lr9vp5pC6-17" style="edgeStyle=orthogonalEdgeStyle;rounded=0;orthogonalLoop=1;jettySize=auto;html=1;exitX=0.5;exitY=1;exitDx=0;exitDy=0;entryX=0.5;entryY=0;entryDx=0;entryDy=0;" edge="1" parent="1" source="gpJfkQHuCm5lr9vp5pC6-3" target="gpJfkQHuCm5lr9vp5pC6-4">
          <mxGeometry relative="1" as="geometry" />
        </mxCell>
        <mxCell id="gpJfkQHuCm5lr9vp5pC6-3" value="读取电压并进行转换" style="rounded=1;whiteSpace=wrap;html=1;" vertex="1" parent="1">
          <mxGeometry x="-730" y="200" width="120" height="60" as="geometry" />
        </mxCell>
        <mxCell id="gpJfkQHuCm5lr9vp5pC6-8" style="edgeStyle=orthogonalEdgeStyle;rounded=0;orthogonalLoop=1;jettySize=auto;html=1;exitX=0;exitY=0.5;exitDx=0;exitDy=0;entryX=0.5;entryY=0;entryDx=0;entryDy=0;" edge="1" parent="1" source="gpJfkQHuCm5lr9vp5pC6-4" target="gpJfkQHuCm5lr9vp5pC6-6">
          <mxGeometry relative="1" as="geometry" />
        </mxCell>
        <mxCell id="gpJfkQHuCm5lr9vp5pC6-9" style="edgeStyle=orthogonalEdgeStyle;rounded=0;orthogonalLoop=1;jettySize=auto;html=1;exitX=0.5;exitY=1;exitDx=0;exitDy=0;entryX=0.5;entryY=0;entryDx=0;entryDy=0;" edge="1" parent="1" source="gpJfkQHuCm5lr9vp5pC6-4" target="gpJfkQHuCm5lr9vp5pC6-5">
          <mxGeometry relative="1" as="geometry" />
        </mxCell>
        <mxCell id="gpJfkQHuCm5lr9vp5pC6-10" style="edgeStyle=orthogonalEdgeStyle;rounded=0;orthogonalLoop=1;jettySize=auto;html=1;exitX=1;exitY=0.5;exitDx=0;exitDy=0;entryX=0.5;entryY=0;entryDx=0;entryDy=0;" edge="1" parent="1" source="gpJfkQHuCm5lr9vp5pC6-4" target="gpJfkQHuCm5lr9vp5pC6-7">
          <mxGeometry relative="1" as="geometry" />
        </mxCell>
        <mxCell id="gpJfkQHuCm5lr9vp5pC6-4" value="判断电压大小" style="rhombus;whiteSpace=wrap;html=1;" vertex="1" parent="1">
          <mxGeometry x="-710" y="290" width="80" height="80" as="geometry" />
        </mxCell>
        <mxCell id="gpJfkQHuCm5lr9vp5pC6-5" value="风扇开启，警告关闭，模式1" style="rounded=1;whiteSpace=wrap;html=1;" vertex="1" parent="1">
          <mxGeometry x="-730" y="400" width="120" height="60" as="geometry" />
        </mxCell>
        <mxCell id="gpJfkQHuCm5lr9vp5pC6-6" value="风扇关闭，警告关闭，模式0" style="rounded=1;whiteSpace=wrap;html=1;" vertex="1" parent="1">
          <mxGeometry x="-890" y="400" width="120" height="60" as="geometry" />
        </mxCell>
        <mxCell id="gpJfkQHuCm5lr9vp5pC6-7" value="风扇开启，警告开启，模式2/3" style="rounded=1;whiteSpace=wrap;html=1;" vertex="1" parent="1">
          <mxGeometry x="-570" y="400" width="120" height="60" as="geometry" />
        </mxCell>
        <mxCell id="gpJfkQHuCm5lr9vp5pC6-11" value="返回" style="strokeWidth=2;html=1;shape=mxgraph.flowchart.terminator;whiteSpace=wrap;" vertex="1" parent="1">
          <mxGeometry x="-720" y="490" width="100" height="60" as="geometry" />
        </mxCell>
        <mxCell id="gpJfkQHuCm5lr9vp5pC6-12" style="edgeStyle=orthogonalEdgeStyle;rounded=0;orthogonalLoop=1;jettySize=auto;html=1;exitX=0.5;exitY=1;exitDx=0;exitDy=0;entryX=0;entryY=0.5;entryDx=0;entryDy=0;entryPerimeter=0;" edge="1" parent="1" source="gpJfkQHuCm5lr9vp5pC6-6" target="gpJfkQHuCm5lr9vp5pC6-11">
          <mxGeometry relative="1" as="geometry" />
        </mxCell>
        <mxCell id="gpJfkQHuCm5lr9vp5pC6-13" style="edgeStyle=orthogonalEdgeStyle;rounded=0;orthogonalLoop=1;jettySize=auto;html=1;exitX=0.5;exitY=1;exitDx=0;exitDy=0;entryX=0.5;entryY=0;entryDx=0;entryDy=0;entryPerimeter=0;" edge="1" parent="1" source="gpJfkQHuCm5lr9vp5pC6-5" target="gpJfkQHuCm5lr9vp5pC6-11">
          <mxGeometry relative="1" as="geometry" />
        </mxCell>
        <mxCell id="gpJfkQHuCm5lr9vp5pC6-14" style="edgeStyle=orthogonalEdgeStyle;rounded=0;orthogonalLoop=1;jettySize=auto;html=1;exitX=0.5;exitY=1;exitDx=0;exitDy=0;entryX=1;entryY=0.5;entryDx=0;entryDy=0;entryPerimeter=0;" edge="1" parent="1" source="gpJfkQHuCm5lr9vp5pC6-7" target="gpJfkQHuCm5lr9vp5pC6-11">
          <mxGeometry relative="1" as="geometry" />
        </mxCell>
        <mxCell id="gpJfkQHuCm5lr9vp5pC6-25" style="edgeStyle=orthogonalEdgeStyle;rounded=0;orthogonalLoop=1;jettySize=auto;html=1;exitX=0.5;exitY=1;exitDx=0;exitDy=0;exitPerimeter=0;entryX=0.5;entryY=0;entryDx=0;entryDy=0;" edge="1" parent="1" source="gpJfkQHuCm5lr9vp5pC6-18" target="gpJfkQHuCm5lr9vp5pC6-19">
          <mxGeometry relative="1" as="geometry" />
        </mxCell>
        <mxCell id="gpJfkQHuCm5lr9vp5pC6-18" value="中断处理程序2" style="strokeWidth=2;html=1;shape=mxgraph.flowchart.terminator;whiteSpace=wrap;" vertex="1" parent="1">
          <mxGeometry x="-719.9000000000001" y="570" width="100" height="60" as="geometry" />
        </mxCell>
        <mxCell id="gpJfkQHuCm5lr9vp5pC6-19" value="重置中断" style="rounded=1;whiteSpace=wrap;html=1;" vertex="1" parent="1">
          <mxGeometry x="-729.9000000000001" y="660" width="120" height="60" as="geometry" />
        </mxCell>
        <mxCell id="gpJfkQHuCm5lr9vp5pC6-27" style="edgeStyle=orthogonalEdgeStyle;rounded=0;orthogonalLoop=1;jettySize=auto;html=1;exitX=0.5;exitY=1;exitDx=0;exitDy=0;exitPerimeter=0;entryX=0.5;entryY=0;entryDx=0;entryDy=0;" edge="1" parent="1" source="gpJfkQHuCm5lr9vp5pC6-20" target="gpJfkQHuCm5lr9vp5pC6-21">
          <mxGeometry relative="1" as="geometry" />
        </mxCell>
        <mxCell id="gpJfkQHuCm5lr9vp5pC6-32" value="是" style="edgeLabel;html=1;align=center;verticalAlign=middle;resizable=0;points=[];" vertex="1" connectable="0" parent="gpJfkQHuCm5lr9vp5pC6-27">
          <mxGeometry x="-0.9556" y="5" relative="1" as="geometry">
            <mxPoint y="1" as="offset" />
          </mxGeometry>
        </mxCell>
        <mxCell id="gpJfkQHuCm5lr9vp5pC6-20" value="是否为模式1" style="strokeWidth=2;html=1;shape=mxgraph.flowchart.decision;whiteSpace=wrap;" vertex="1" parent="1">
          <mxGeometry x="-719.9000000000001" y="750" width="100" height="100" as="geometry" />
        </mxCell>
        <mxCell id="gpJfkQHuCm5lr9vp5pC6-21" value="警告取反，控制闪烁" style="rounded=1;whiteSpace=wrap;html=1;" vertex="1" parent="1">
          <mxGeometry x="-729.9000000000001" y="880" width="120" height="60" as="geometry" />
        </mxCell>
        <mxCell id="gpJfkQHuCm5lr9vp5pC6-30" style="edgeStyle=orthogonalEdgeStyle;rounded=0;orthogonalLoop=1;jettySize=auto;html=1;exitX=0.5;exitY=1;exitDx=0;exitDy=0;exitPerimeter=0;entryX=0.5;entryY=0;entryDx=0;entryDy=0;" edge="1" parent="1" source="gpJfkQHuCm5lr9vp5pC6-22" target="gpJfkQHuCm5lr9vp5pC6-23">
          <mxGeometry relative="1" as="geometry" />
        </mxCell>
        <mxCell id="gpJfkQHuCm5lr9vp5pC6-40" value="是" style="edgeLabel;html=1;align=center;verticalAlign=middle;resizable=0;points=[];" vertex="1" connectable="0" parent="gpJfkQHuCm5lr9vp5pC6-30">
          <mxGeometry x="-0.6889" y="5" relative="1" as="geometry">
            <mxPoint y="1" as="offset" />
          </mxGeometry>
        </mxCell>
        <mxCell id="gpJfkQHuCm5lr9vp5pC6-22" value="是否为模式2" style="strokeWidth=2;html=1;shape=mxgraph.flowchart.decision;whiteSpace=wrap;" vertex="1" parent="1">
          <mxGeometry x="-719.9000000000001" y="970" width="100" height="100" as="geometry" />
        </mxCell>
        <mxCell id="gpJfkQHuCm5lr9vp5pC6-23" value="beep取反，控制蜂鸣" style="rounded=1;whiteSpace=wrap;html=1;" vertex="1" parent="1">
          <mxGeometry x="-729.9000000000001" y="1100" width="120" height="60" as="geometry" />
        </mxCell>
        <mxCell id="gpJfkQHuCm5lr9vp5pC6-24" value="返回" style="strokeWidth=2;html=1;shape=mxgraph.flowchart.terminator;whiteSpace=wrap;" vertex="1" parent="1">
          <mxGeometry x="-719.9000000000001" y="1190" width="100" height="60" as="geometry" />
        </mxCell>
        <mxCell id="gpJfkQHuCm5lr9vp5pC6-26" style="edgeStyle=orthogonalEdgeStyle;rounded=0;orthogonalLoop=1;jettySize=auto;html=1;exitX=0.5;exitY=1;exitDx=0;exitDy=0;entryX=0.5;entryY=0;entryDx=0;entryDy=0;entryPerimeter=0;" edge="1" parent="1" source="gpJfkQHuCm5lr9vp5pC6-19" target="gpJfkQHuCm5lr9vp5pC6-20">
          <mxGeometry relative="1" as="geometry" />
        </mxCell>
        <mxCell id="gpJfkQHuCm5lr9vp5pC6-29" style="edgeStyle=orthogonalEdgeStyle;rounded=0;orthogonalLoop=1;jettySize=auto;html=1;exitX=0.5;exitY=1;exitDx=0;exitDy=0;entryX=0.5;entryY=0;entryDx=0;entryDy=0;entryPerimeter=0;" edge="1" parent="1" source="gpJfkQHuCm5lr9vp5pC6-21" target="gpJfkQHuCm5lr9vp5pC6-22">
          <mxGeometry relative="1" as="geometry" />
        </mxCell>
        <mxCell id="gpJfkQHuCm5lr9vp5pC6-31" style="edgeStyle=orthogonalEdgeStyle;rounded=0;orthogonalLoop=1;jettySize=auto;html=1;exitX=0.5;exitY=1;exitDx=0;exitDy=0;entryX=0.5;entryY=0;entryDx=0;entryDy=0;entryPerimeter=0;" edge="1" parent="1" source="gpJfkQHuCm5lr9vp5pC6-23" target="gpJfkQHuCm5lr9vp5pC6-24">
          <mxGeometry relative="1" as="geometry" />
        </mxCell>
        <mxCell id="gpJfkQHuCm5lr9vp5pC6-33" style="edgeStyle=orthogonalEdgeStyle;rounded=0;orthogonalLoop=1;jettySize=auto;html=1;exitX=1;exitY=0.5;exitDx=0;exitDy=0;exitPerimeter=0;entryX=1;entryY=0.5;entryDx=0;entryDy=0;entryPerimeter=0;" edge="1" parent="1" source="gpJfkQHuCm5lr9vp5pC6-20" target="gpJfkQHuCm5lr9vp5pC6-22">
          <mxGeometry relative="1" as="geometry" />
        </mxCell>
        <mxCell id="gpJfkQHuCm5lr9vp5pC6-34" value="否" style="edgeLabel;html=1;align=center;verticalAlign=middle;resizable=0;points=[];" vertex="1" connectable="0" parent="gpJfkQHuCm5lr9vp5pC6-33">
          <mxGeometry x="-0.0359" y="6" relative="1" as="geometry">
            <mxPoint as="offset" />
          </mxGeometry>
        </mxCell>
        <mxCell id="gpJfkQHuCm5lr9vp5pC6-38" style="edgeStyle=orthogonalEdgeStyle;rounded=0;orthogonalLoop=1;jettySize=auto;html=1;exitX=0;exitY=0.5;exitDx=0;exitDy=0;exitPerimeter=0;entryX=0;entryY=0.5;entryDx=0;entryDy=0;entryPerimeter=0;" edge="1" parent="1" source="gpJfkQHuCm5lr9vp5pC6-22" target="gpJfkQHuCm5lr9vp5pC6-24">
          <mxGeometry relative="1" as="geometry" />
        </mxCell>
        <mxCell id="gpJfkQHuCm5lr9vp5pC6-39" value="否" style="edgeLabel;html=1;align=center;verticalAlign=middle;resizable=0;points=[];" vertex="1" connectable="0" parent="gpJfkQHuCm5lr9vp5pC6-38">
          <mxGeometry x="-0.0556" relative="1" as="geometry">
            <mxPoint as="offset" />
          </mxGeometry>
        </mxCell>
      </root>
    </mxGraphModel>
  </diagram>
</mxfile>
